<svg width="20.078" height="17.872" viewBox="0 0 514 457.516" xmlns="http://www.w3.org/2000/svg"><path d="M453.032 65.052C429.21 39.267 396.52 25.065 360.98 25.065c-26.566 0-50.896 8.382-72.314 24.91-10.808 8.343-20.6 18.55-29.235 30.463-8.63-11.91-18.427-22.12-29.238-30.463-21.415-16.528-45.744-24.91-72.31-24.91-35.54 0-68.233 14.202-92.057 39.987-23.54 25.484-36.506 60.3-36.506 98.037 0 38.84 14.505 74.395 45.646 111.894 27.858 33.543 67.896 67.594 114.262 107.024 15.832 13.465 33.778 28.729 52.412 44.987a27.02 27.02 0 0017.791 6.671 27.024 27.024 0 0017.785-6.664c18.634-16.262 36.59-31.532 52.43-45.005 46.358-39.422 86.397-73.47 114.255-107.017 31.14-37.495 45.642-73.05 45.642-111.894 0-37.734-12.967-72.549-36.51-98.033zm0 0" fill="#fff" data-original="#000000" stroke="#000" stroke-width="38.829"/></svg>