<?xml version="1.0" encoding="UTF-8" standalone="no"?><svg viewBox="0 0 60 60" xmlns="http://www.w3.org/2000/svg" xmlns:xlink="http://www.w3.org/1999/xlink"><style>:root>svg{display:none}:root>svg:target{display:block}</style><svg width="60" height="60" viewBox="0 0 60 60" id="arrow"><g id="Button"><circle cx="29.721" cy="30.151" r="30" fill="var(--fill-icon-circle)" id="circle30"/><path fill="var(--fill-icon-arrow)" d="M42.6 25.297l2.69 3.28H13.345v2.588h31.94L42.6 34.446l1.5 1.829 5.25-6.4-5.25-6.4z" id="path33"/></g></svg><svg width="30" height="30" viewBox="0 0 60 60" id="arrow-small"><g id="Button"><circle cx="29.721" cy="30.151" r="30" fill="var(--fill-icon-circle)" id="circle30"/><path fill="var(--fill-icon-arrow)" d="M42.6 25.297l2.69 3.28H13.345v2.588h31.94L42.6 34.446l1.5 1.829 5.25-6.4-5.25-6.4z" id="path33"/></g></svg><svg width="20" height="20" viewBox="0 0 490.666 490.666" id="cart" xmlns="http://www.w3.org/2000/svg"><path d="M394.667 373.333c-29.397 0-53.333 23.936-53.333 53.333S365.269 480 394.667 480 448 456.064 448 426.666s-23.936-53.333-53.333-53.333zm0 85.333c-17.643 0-32-14.357-32-32s14.357-32 32-32 32 14.357 32 32-14.358 32-32 32zM181.333 373.333c-29.397 0-53.333 23.936-53.333 53.333S151.936 480 181.333 480s53.333-23.936 53.333-53.333-23.935-53.334-53.333-53.334zm0 85.333c-17.643 0-32-14.357-32-32s14.357-32 32-32 32 14.357 32 32-14.357 32-32 32zM437.333 330.666H191.125c-25.323 0-47.317-18.027-52.288-42.88L85.12 19.242a10.666 10.666 0 00-10.453-8.576h-64C4.779 10.666 0 15.445 0 21.333S4.779 32 10.667 32H65.92l51.989 259.989c6.955 34.773 37.76 60.011 73.216 60.011h246.208c5.888 0 10.667-4.779 10.667-10.667s-4.779-10.667-10.667-10.667z" fill="#fff" data-original="#000000"/><path d="M488 78.272a10.693 10.693 0 00-8-3.605H96c-5.888 0-10.667 4.779-10.667 10.667S90.112 96 96 96h371.925l-15.168 121.301c-2.005 15.979-15.659 28.032-31.765 28.032H128c-5.888 0-10.667 4.779-10.667 10.667s4.779 10.667 10.667 10.667h292.992c26.837 0 49.6-20.075 52.928-46.72l16.661-133.291A10.635 10.635 0 00488 78.272z" fill="#fff" data-original="#000000"/></svg><svg width="20.078" height="17.872" x="0" y="0" viewBox="0 0 514 457.516" version="1.1" id="heart" xmlns="http://www.w3.org/2000/svg"><path d="M453.032 65.052C429.21 39.267 396.52 25.065 360.98 25.065c-26.566 0-50.896 8.382-72.314 24.91-10.808 8.343-20.6 18.55-29.235 30.463-8.63-11.91-18.427-22.12-29.238-30.463-21.415-16.528-45.744-24.91-72.31-24.91-35.54 0-68.233 14.202-92.057 39.987-23.54 25.484-36.506 60.3-36.506 98.037 0 38.84 14.505 74.395 45.646 111.894 27.858 33.543 67.896 67.594 114.262 107.024 15.832 13.465 33.778 28.729 52.412 44.987a27.02 27.02 0 0017.791 6.671 27.024 27.024 0 0017.785-6.664c18.634-16.262 36.59-31.532 52.43-45.005 46.358-39.422 86.397-73.47 114.255-107.017 31.14-37.495 45.642-73.05 45.642-111.894 0-37.734-12.967-72.549-36.51-98.033zm0 0" fill="#fff" data-original="#000000" stroke="#000" stroke-width="38.829" id="path2"/></svg><svg width="20" height="20" viewBox="0 0 512 512.001" id="user" xmlns="http://www.w3.org/2000/svg"><g transform="translate(50)"><path xmlns="http://www.w3.org/2000/svg" d="M210.352 246.633c33.882 0 63.218-12.153 87.195-36.13 23.969-23.972 36.125-53.304 36.125-87.19 0-33.876-12.152-63.211-36.129-87.192C273.566 12.152 244.23 0 210.352 0c-33.887 0-63.22 12.152-87.192 36.125s-36.129 53.309-36.129 87.188c0 33.886 12.156 63.222 36.13 87.195 23.98 23.969 53.316 36.125 87.19 36.125zM144.379 57.34c18.394-18.395 39.973-27.336 65.973-27.336 25.996 0 47.578 8.941 65.976 27.336 18.395 18.398 27.34 39.98 27.34 65.972 0 26-8.945 47.579-27.34 65.977-18.398 18.399-39.98 27.34-65.976 27.34-25.993 0-47.57-8.945-65.973-27.34-18.399-18.394-27.344-39.976-27.344-65.976 0-25.993 8.945-47.575 27.344-65.973zm0 0M426.129 393.703c-.692-9.976-2.09-20.86-4.149-32.351-2.078-11.579-4.753-22.524-7.957-32.528-3.312-10.34-7.808-20.55-13.375-30.336-5.77-10.156-12.55-19-20.16-26.277-7.957-7.613-17.699-13.734-28.965-18.2-11.226-4.44-23.668-6.69-36.976-6.69-5.227 0-10.281 2.144-20.043 8.5a2711.03 2711.03 0 01-20.879 13.46c-6.707 4.274-15.793 8.278-27.016 11.903-10.949 3.543-22.066 5.34-33.043 5.34-10.968 0-22.086-1.797-33.043-5.34-11.21-3.622-20.3-7.625-26.996-11.899-7.77-4.965-14.8-9.496-20.898-13.469-9.754-6.355-14.809-8.5-20.035-8.5-13.313 0-25.75 2.254-36.973 6.7-11.258 4.457-21.004 10.578-28.969 18.199-7.609 7.281-14.39 16.12-20.156 26.273-5.558 9.785-10.058 19.992-13.371 30.34-3.2 10.004-5.875 20.945-7.953 32.524-2.063 11.476-3.457 22.363-4.149 32.363C.343 403.492 0 413.668 0 423.949c0 26.727 8.496 48.363 25.25 64.32C41.797 504.017 63.688 512 90.316 512h246.532c26.62 0 48.511-7.984 65.062-23.73 16.758-15.946 25.254-37.59 25.254-64.325-.004-10.316-.351-20.492-1.035-30.242zm-44.906 72.828c-10.934 10.406-25.45 15.465-44.38 15.465H90.317c-18.933 0-33.449-5.059-44.379-15.46-10.722-10.208-15.933-24.141-15.933-42.587 0-9.594.316-19.066.95-28.16.616-8.922 1.878-18.723 3.75-29.137 1.847-10.285 4.198-19.937 6.995-28.675 2.684-8.38 6.344-16.676 10.883-24.668 4.332-7.618 9.316-14.153 14.816-19.418 5.145-4.926 11.63-8.957 19.27-11.98 7.066-2.798 15.008-4.329 23.629-4.56 1.05.56 2.922 1.626 5.953 3.602 6.168 4.02 13.277 8.606 21.137 13.625 8.86 5.649 20.273 10.75 33.91 15.152 13.941 4.508 28.16 6.797 42.273 6.797 14.114 0 28.336-2.289 42.27-6.793 13.648-4.41 25.058-9.507 33.93-15.164 8.043-5.14 14.953-9.593 21.12-13.617 3.032-1.973 4.903-3.043 5.954-3.601 8.625.23 16.566 1.761 23.636 4.558 7.637 3.024 14.122 7.059 19.266 11.98 5.5 5.262 10.484 11.798 14.816 19.423 4.543 7.988 8.208 16.289 10.887 24.66 2.801 8.75 5.156 18.398 7 28.675 1.867 10.434 3.133 20.239 3.75 29.145v.008c.637 9.058.957 18.527.961 28.148-.004 18.45-5.215 32.38-15.937 42.582zm0 0" data-original="#000000"/></g></svg></svg>